<?xml version="1.0" encoding="UTF-8"?>
<!-- Generator: Adobe Illustrator 22.0.1, SVG Export Plug-In . SVG Version: 6.00 Build 0)  -->
<svg version="1.1" id="Warstwa_1" xmlns="http://www.w3.org/2000/svg" xmlns:xlink="http://www.w3.org/1999/xlink" x="0px" y="0px" viewBox="0 0 108 26" style="enable-background:new 0 0 108 26;" xml:space="preserve">
<style type="text/css">
	.st0{fill:#164194;}
	.st1{fill:#FFED00;}
</style>
<g id="XMLID_1382_">
	<g id="XMLID_1386_">
		<rect id="XMLID_1399_" x="71.38" y="0.96" class="st0" width="36.12" height="24.08"/>
		<polygon id="XMLID_1398_" class="st1" points="88.67,6.21 89.43,5.65 90.19,6.21 89.9,5.31 90.68,4.75 89.72,4.75 89.43,3.84     89.14,4.75 88.18,4.75 88.96,5.31   "/>
		<polygon id="XMLID_1397_" class="st1" points="84.72,7.27 85.49,6.71 86.25,7.27 85.96,6.37 86.73,5.81 85.78,5.81 85.49,4.9     85.19,5.81 84.24,5.81 85.01,6.37   "/>
		<polygon id="XMLID_1396_" class="st1" points="82.6,7.79 82.31,8.71 81.35,8.7 82.13,9.26 81.84,10.16 82.6,9.6 83.36,10.16     83.07,9.26 83.85,8.7 82.89,8.7   "/>
		<polygon id="XMLID_1395_" class="st1" points="81.54,13.54 82.3,14.1 82.01,13.2 82.79,12.64 81.83,12.64 81.54,11.73     81.25,12.65 80.29,12.64 81.07,13.2 80.78,14.1   "/>
		<polygon id="XMLID_1394_" class="st1" points="82.89,16.59 82.6,15.68 82.31,16.59 81.35,16.59 82.13,17.15 81.84,18.05     82.6,17.49 83.36,18.05 83.07,17.15 83.85,16.59   "/>
		<polygon id="XMLID_1393_" class="st1" points="85.78,19.49 85.49,18.58 85.2,19.49 84.24,19.49 85.02,20.04 84.73,20.94     85.49,20.38 86.26,20.94 85.96,20.04 86.74,19.49   "/>
		<polygon id="XMLID_1392_" class="st1" points="89.72,20.53 89.43,19.62 89.14,20.53 88.18,20.53 88.96,21.09 88.67,21.99     89.43,21.43 90.2,21.99 89.9,21.09 90.68,20.53   "/>
		<polygon id="XMLID_1391_" class="st1" points="93.66,19.49 93.37,18.58 93.08,19.49 92.13,19.49 92.9,20.04 92.61,20.94     93.37,20.38 94.13,20.94 93.84,20.04 94.62,19.49   "/>
		<polygon id="XMLID_1390_" class="st1" points="96.56,16.59 96.26,15.68 95.97,16.59 95.02,16.59 95.79,17.15 95.5,18.05     96.26,17.49 97.03,18.05 96.74,17.15 97.51,16.59   "/>
		<polygon id="XMLID_1389_" class="st1" points="98.56,12.63 97.6,12.63 97.31,11.72 97.02,12.63 96.07,12.63 96.84,13.19     96.55,14.09 97.31,13.53 98.07,14.09 97.78,13.19   "/>
		<polygon id="XMLID_1388_" class="st1" points="95.5,10.15 96.26,9.59 97.03,10.15 96.74,9.25 97.51,8.69 96.56,8.69 96.26,7.78     95.97,8.7 95.02,8.69 95.79,9.25   "/>
		<polygon id="XMLID_1387_" class="st1" points="93.38,4.9 93.09,5.81 92.14,5.81 92.91,6.37 92.62,7.27 93.39,6.71 94.15,7.27     93.86,6.37 94.63,5.81 93.68,5.81   "/>
	</g>
	<g>
		<g>
			<path d="M2.86,15.8c-0.41,0-0.76-0.06-1.06-0.18c-0.3-0.12-0.54-0.29-0.73-0.5c-0.19-0.21-0.34-0.47-0.43-0.76     c-0.09-0.29-0.14-0.61-0.14-0.96V9.64h1.1v3.66c0,0.27,0.03,0.51,0.09,0.7s0.15,0.35,0.26,0.47c0.11,0.12,0.25,0.21,0.4,0.27     c0.15,0.06,0.33,0.09,0.52,0.09c0.19,0,0.37-0.03,0.52-0.09c0.16-0.06,0.29-0.15,0.4-0.27C3.91,14.35,4,14.2,4.06,14     c0.06-0.19,0.09-0.43,0.09-0.7V9.64h1.1v3.76c0,0.35-0.05,0.67-0.14,0.96c-0.1,0.29-0.24,0.54-0.43,0.76     c-0.19,0.21-0.44,0.38-0.74,0.5C3.63,15.74,3.28,15.8,2.86,15.8z"/>
			<path d="M6.55,11.39c0.2-0.06,0.47-0.11,0.79-0.17c0.32-0.05,0.68-0.08,1.08-0.08c0.37,0,0.68,0.05,0.93,0.15     c0.25,0.1,0.45,0.24,0.6,0.43c0.15,0.18,0.25,0.4,0.31,0.66s0.09,0.54,0.09,0.85v2.56H9.29V13.4c0-0.24-0.02-0.45-0.05-0.62     c-0.03-0.17-0.08-0.31-0.16-0.42c-0.07-0.11-0.17-0.19-0.3-0.23c-0.12-0.05-0.28-0.07-0.46-0.07c-0.13,0-0.27,0.01-0.42,0.03     c-0.14,0.02-0.25,0.03-0.32,0.04v3.67H6.55V11.39z"/>
			<path d="M12.75,9.91c0,0.2-0.06,0.35-0.19,0.47c-0.13,0.12-0.28,0.17-0.45,0.17c-0.18,0-0.33-0.06-0.46-0.17     c-0.13-0.12-0.19-0.27-0.19-0.47c0-0.2,0.06-0.36,0.19-0.48c0.13-0.12,0.28-0.17,0.46-0.17c0.17,0,0.32,0.06,0.45,0.17     C12.69,9.55,12.75,9.71,12.75,9.91z M12.64,15.79h-1.05v-4.55h1.05V15.79z"/>
			<path d="M15.44,11.04c0.35,0,0.64,0.04,0.88,0.13c0.24,0.09,0.43,0.21,0.57,0.37c0.14,0.16,0.24,0.35,0.3,0.57     c0.06,0.22,0.09,0.47,0.09,0.73v2.75c-0.16,0.03-0.41,0.08-0.73,0.13c-0.33,0.05-0.7,0.07-1.11,0.07c-0.27,0-0.52-0.03-0.75-0.08     c-0.23-0.05-0.42-0.14-0.58-0.25c-0.16-0.12-0.28-0.27-0.37-0.45c-0.09-0.19-0.13-0.41-0.13-0.69c0-0.26,0.05-0.48,0.15-0.66     c0.1-0.18,0.24-0.33,0.41-0.44c0.17-0.11,0.37-0.19,0.6-0.24c0.23-0.05,0.47-0.07,0.72-0.07c0.12,0,0.24,0.01,0.36,0.02     c0.13,0.01,0.26,0.04,0.41,0.07v-0.17c0-0.12-0.01-0.24-0.04-0.35c-0.03-0.11-0.08-0.21-0.15-0.29C16,12.11,15.9,12.04,15.78,12     c-0.12-0.05-0.27-0.07-0.45-0.07c-0.24,0-0.47,0.02-0.67,0.05c-0.2,0.03-0.37,0.08-0.5,0.12l-0.13-0.85     c0.13-0.05,0.33-0.09,0.58-0.14C14.88,11.07,15.15,11.04,15.44,11.04z M15.53,14.96c0.32,0,0.57-0.02,0.74-0.05v-1.16     c-0.06-0.02-0.14-0.03-0.25-0.05c-0.11-0.02-0.23-0.03-0.37-0.03c-0.12,0-0.23,0.01-0.35,0.03c-0.12,0.02-0.23,0.05-0.32,0.1     c-0.1,0.05-0.17,0.11-0.23,0.2c-0.06,0.08-0.09,0.19-0.09,0.32c0,0.25,0.08,0.42,0.23,0.52C15.05,14.91,15.26,14.96,15.53,14.96z     "/>
			<path d="M20.54,15.79V9.76h3.87v0.93h-2.77v1.49h2.47v0.91h-2.47v1.76h2.98v0.93H20.54z"/>
			<path d="M29.11,15.55c-0.2,0.05-0.47,0.11-0.79,0.16c-0.32,0.06-0.68,0.08-1.07,0.08c-0.36,0-0.67-0.05-0.92-0.16     c-0.25-0.1-0.44-0.25-0.59-0.43c-0.15-0.19-0.25-0.41-0.32-0.66c-0.06-0.26-0.1-0.54-0.1-0.85v-2.55h1.05v2.38     c0,0.49,0.07,0.83,0.21,1.04c0.14,0.21,0.39,0.31,0.74,0.31c0.13,0,0.26-0.01,0.4-0.02c0.14-0.01,0.25-0.03,0.32-0.04v-3.68h1.05     V15.55z"/>
			<path d="M32.98,12.19c-0.09-0.03-0.21-0.06-0.36-0.09c-0.15-0.03-0.33-0.05-0.53-0.05c-0.12,0-0.24,0.01-0.37,0.03     c-0.13,0.02-0.22,0.04-0.27,0.06v3.64h-1.05v-4.33c0.2-0.08,0.46-0.15,0.76-0.21c0.3-0.07,0.64-0.1,1.01-0.1     c0.07,0,0.15,0,0.24,0.01c0.09,0.01,0.19,0.02,0.28,0.03c0.09,0.01,0.18,0.03,0.27,0.05c0.09,0.02,0.16,0.04,0.21,0.06     L32.98,12.19z"/>
			<path d="M37.96,13.4c0,0.36-0.05,0.69-0.16,0.98c-0.1,0.3-0.25,0.55-0.44,0.76c-0.19,0.21-0.42,0.37-0.69,0.49     c-0.27,0.12-0.57,0.17-0.89,0.17c-0.32,0-0.62-0.06-0.89-0.17c-0.27-0.12-0.5-0.28-0.69-0.49c-0.19-0.21-0.34-0.46-0.45-0.76     c-0.11-0.3-0.16-0.62-0.16-0.98c0-0.36,0.05-0.69,0.16-0.98c0.11-0.29,0.26-0.54,0.45-0.75c0.19-0.21,0.42-0.37,0.69-0.48     c0.27-0.11,0.56-0.17,0.88-0.17c0.32,0,0.61,0.06,0.88,0.17c0.27,0.11,0.5,0.27,0.69,0.48c0.19,0.21,0.34,0.46,0.45,0.75     C37.9,12.71,37.96,13.04,37.96,13.4z M36.88,13.4c0-0.45-0.1-0.81-0.29-1.07c-0.19-0.26-0.47-0.4-0.81-0.4     c-0.35,0-0.62,0.13-0.81,0.4c-0.19,0.26-0.29,0.62-0.29,1.07c0,0.46,0.1,0.82,0.29,1.09c0.19,0.27,0.46,0.4,0.81,0.4     c0.35,0,0.62-0.13,0.81-0.4C36.78,14.22,36.88,13.86,36.88,13.4z"/>
			<path d="M43.08,13.52c0,0.35-0.04,0.67-0.13,0.96c-0.09,0.29-0.22,0.54-0.39,0.75c-0.17,0.21-0.38,0.37-0.63,0.49     c-0.25,0.12-0.54,0.17-0.86,0.17c-0.21,0-0.41-0.03-0.59-0.08c-0.18-0.05-0.33-0.11-0.44-0.17v1.76h-1.05v-6.01     c0.21-0.06,0.48-0.11,0.79-0.17c0.31-0.05,0.64-0.08,0.99-0.08c0.36,0,0.68,0.06,0.96,0.17c0.28,0.11,0.53,0.27,0.73,0.47     c0.2,0.21,0.35,0.45,0.46,0.75C43.03,12.83,43.08,13.15,43.08,13.52z M42.01,13.54c0-0.47-0.11-0.83-0.32-1.1     c-0.21-0.26-0.55-0.39-1.02-0.39c-0.1,0-0.2,0-0.31,0.01c-0.11,0.01-0.21,0.03-0.32,0.06v2.6c0.09,0.06,0.22,0.12,0.37,0.18     c0.15,0.06,0.32,0.08,0.49,0.08c0.38,0,0.66-0.13,0.84-0.39C41.92,14.33,42.01,13.98,42.01,13.54z"/>
			<path d="M43.86,13.43c0-0.4,0.06-0.75,0.18-1.05c0.12-0.3,0.28-0.55,0.47-0.75c0.2-0.2,0.42-0.35,0.68-0.45     c0.25-0.1,0.52-0.15,0.78-0.15c0.63,0,1.11,0.19,1.46,0.58c0.35,0.39,0.53,0.97,0.53,1.74c0,0.06,0,0.12,0,0.2     c0,0.07-0.01,0.14-0.01,0.2h-3c0.03,0.37,0.16,0.65,0.39,0.85c0.23,0.2,0.56,0.3,1,0.3c0.25,0,0.49-0.02,0.7-0.07     c0.21-0.05,0.38-0.1,0.5-0.15l0.14,0.86c-0.06,0.03-0.14,0.06-0.24,0.09c-0.1,0.03-0.22,0.06-0.35,0.09     c-0.13,0.03-0.27,0.05-0.42,0.07c-0.15,0.02-0.3,0.03-0.46,0.03c-0.4,0-0.75-0.06-1.04-0.18c-0.3-0.12-0.54-0.28-0.73-0.5     c-0.19-0.21-0.33-0.46-0.43-0.75C43.91,14.09,43.86,13.77,43.86,13.43z M46.92,12.96c0-0.14-0.02-0.28-0.06-0.41     c-0.04-0.13-0.1-0.24-0.18-0.34c-0.08-0.1-0.17-0.17-0.29-0.23c-0.11-0.05-0.25-0.08-0.4-0.08c-0.16,0-0.3,0.03-0.43,0.09     c-0.12,0.06-0.22,0.14-0.31,0.24c-0.08,0.1-0.15,0.21-0.2,0.34c-0.05,0.13-0.08,0.26-0.1,0.39H46.92z"/>
			<path d="M48.44,17.4c-0.08,0-0.18-0.01-0.32-0.02c-0.14-0.01-0.26-0.04-0.36-0.08l0.14-0.86c0.13,0.04,0.28,0.06,0.46,0.06     c0.24,0,0.41-0.07,0.51-0.21c0.1-0.14,0.15-0.36,0.15-0.64v-4.41h1.05v4.42c0,0.59-0.14,1.03-0.42,1.31     C49.38,17.26,48.97,17.4,48.44,17.4z M50.19,9.91c0,0.2-0.06,0.35-0.19,0.47c-0.13,0.12-0.28,0.17-0.45,0.17     c-0.18,0-0.33-0.06-0.46-0.17c-0.13-0.12-0.19-0.27-0.19-0.47c0-0.2,0.06-0.36,0.19-0.48c0.13-0.12,0.28-0.17,0.46-0.17     c0.17,0,0.32,0.06,0.45,0.17C50.13,9.55,50.19,9.71,50.19,9.91z"/>
			<path d="M52.5,14.93c0.28,0,0.48-0.03,0.61-0.1c0.13-0.07,0.19-0.18,0.19-0.34c0-0.15-0.07-0.28-0.2-0.37     c-0.14-0.1-0.36-0.21-0.67-0.32c-0.19-0.07-0.37-0.14-0.53-0.22c-0.16-0.08-0.3-0.17-0.41-0.27c-0.12-0.1-0.21-0.23-0.27-0.38     c-0.07-0.15-0.1-0.33-0.1-0.54c0-0.42,0.15-0.75,0.46-0.99c0.31-0.24,0.72-0.36,1.25-0.36c0.27,0,0.52,0.02,0.76,0.07     c0.24,0.05,0.43,0.1,0.55,0.14l-0.19,0.85c-0.12-0.05-0.26-0.1-0.44-0.14c-0.18-0.04-0.39-0.07-0.63-0.07     c-0.21,0-0.39,0.04-0.52,0.11c-0.13,0.07-0.2,0.18-0.2,0.33c0,0.08,0.01,0.14,0.04,0.2c0.03,0.06,0.07,0.11,0.13,0.16     c0.06,0.05,0.15,0.1,0.25,0.15c0.1,0.05,0.23,0.1,0.38,0.15c0.25,0.09,0.46,0.18,0.63,0.27c0.17,0.09,0.32,0.19,0.43,0.3     c0.11,0.11,0.2,0.24,0.25,0.39c0.05,0.14,0.08,0.32,0.08,0.52c0,0.43-0.16,0.76-0.48,0.99s-0.78,0.33-1.38,0.33     c-0.4,0-0.72-0.03-0.96-0.1c-0.24-0.07-0.41-0.12-0.51-0.16l0.18-0.88c0.16,0.06,0.34,0.12,0.56,0.18     C51.98,14.9,52.23,14.93,52.5,14.93z"/>
			<path d="M56.34,13.01c0.13-0.14,0.28-0.29,0.43-0.45c0.15-0.16,0.3-0.32,0.44-0.48c0.14-0.16,0.28-0.31,0.41-0.46     c0.13-0.15,0.24-0.28,0.33-0.39h1.24c-0.29,0.32-0.6,0.66-0.92,1.01c-0.32,0.35-0.64,0.69-0.97,1.02     c0.17,0.15,0.36,0.32,0.55,0.53c0.19,0.21,0.38,0.42,0.56,0.66c0.18,0.23,0.35,0.46,0.5,0.7c0.16,0.23,0.29,0.45,0.39,0.64h-1.22     c-0.1-0.18-0.22-0.37-0.36-0.56c-0.14-0.2-0.28-0.39-0.44-0.57c-0.16-0.19-0.32-0.36-0.48-0.53c-0.16-0.17-0.32-0.31-0.48-0.42     v2.09h-1.05V9.94l1.05-0.17V13.01z"/>
			<path d="M61.53,11.04c0.35,0,0.64,0.04,0.88,0.13c0.24,0.09,0.43,0.21,0.57,0.37c0.14,0.16,0.24,0.35,0.3,0.57     c0.06,0.22,0.09,0.47,0.09,0.73v2.75c-0.16,0.03-0.41,0.08-0.73,0.13c-0.33,0.05-0.7,0.07-1.11,0.07c-0.27,0-0.52-0.03-0.75-0.08     c-0.23-0.05-0.42-0.14-0.58-0.25c-0.16-0.12-0.28-0.27-0.37-0.45c-0.09-0.19-0.13-0.41-0.13-0.69c0-0.26,0.05-0.48,0.15-0.66     c0.1-0.18,0.24-0.33,0.41-0.44c0.17-0.11,0.37-0.19,0.6-0.24c0.23-0.05,0.47-0.07,0.72-0.07c0.12,0,0.24,0.01,0.36,0.02     c0.13,0.01,0.26,0.04,0.41,0.07v-0.17c0-0.12-0.01-0.24-0.04-0.35c-0.03-0.11-0.08-0.21-0.15-0.29c-0.07-0.08-0.17-0.15-0.29-0.2     c-0.12-0.05-0.27-0.07-0.45-0.07c-0.24,0-0.47,0.02-0.67,0.05c-0.2,0.03-0.37,0.08-0.5,0.12l-0.13-0.85     c0.13-0.05,0.33-0.09,0.58-0.14C60.97,11.07,61.24,11.04,61.53,11.04z M61.62,14.96c0.32,0,0.57-0.02,0.74-0.05v-1.16     c-0.06-0.02-0.14-0.03-0.25-0.05c-0.11-0.02-0.23-0.03-0.37-0.03c-0.12,0-0.23,0.01-0.35,0.03c-0.12,0.02-0.23,0.05-0.32,0.1     c-0.1,0.05-0.17,0.11-0.23,0.2c-0.06,0.08-0.09,0.19-0.09,0.32c0,0.25,0.08,0.42,0.23,0.52C61.14,14.91,61.35,14.96,61.62,14.96z     "/>
		</g>
	</g>
</g>
</svg>